# xmcd
#
# Track frame offsets:
#	150
#	17911
#	34310
#	49846
#	67854
#	83909
#	112633
#	130278
#	145578
#	164887
#	181072
#	196754
#	211422
#	227452
#	240289
#	259063
#	274373
#	293572
#
# Disc length: 4135 seconds
#
# Revision: 1
# Processed by: cddbd v1.5.2PL0 Copyright (c) Steve Scherf et al.
# Submitted via: audiograbber 1.83.01
#
DISCID=f5102512
DTITLE=Various Artist - Rhythm Is Gonna Get You CD1
DYEAR=2014
DGENRE=Latin
TTITLE0=Gloria Estefan - Rhythm Is Gonna Get You
TTITLE1=Shakira ft Wyclef Jean - Hips Don't Lie
TTITLE2=Pitbull ft TJR - Don't Stop The Party
TTITLE3=Jennifer Lopez - Let's Get Loud
TTITLE4=Sergio Mendes ft The Black Eyed Peas - Masque Nada
TTITLE5=Lionel Richie - All Night Long (All Night)
TTITLE6=Debarge - Rhythm Of The Night
TTITLE7=Gipsy Kings - Bamboleo
TTITLE8=Justin Timberlake - Señorita
TTITLE9=Nelly Furtado - No Hay Igual
TTITLE10=Shaft - (Mucho Mambo) Sway
TTITLE11=Lou Bega - Mambo No 5 (A Little Bit Of)
TTITLE12=Las Ketchup - The Ketchup Song (Aserejé) (Spanglish Version)
TTITLE13=Los Lobos - La Bamba
TTITLE14=Los Del Rio - Macarena
TTITLE15=Kaoma - Lambada
TTITLE16=Santana - Oye Como Va
TTITLE17=Astrud Gilberto - The Girl From Ipanema
EXTD=
EXTT0=
EXTT1=
EXTT2=
EXTT3=
EXTT4=
EXTT5=
EXTT6=
EXTT7=
EXTT8=
EXTT9=
EXTT10=
EXTT11=
EXTT12=
EXTT13=
EXTT14=
EXTT15=
EXTT16=
EXTT17=
PLAYORDER=
